<svg width="10" height="10" viewBox="0 0 10 10" fill="none" xmlns="http://www.w3.org/2000/svg">
<g clip-path="url(#clip0)">
<path d="M1.75233 2.89316V3.4188C1.75233 4.1907 2.40546 4.7735 3.15323 4.7735C3.901 4.7735 4.55413 4.1907 4.55413 3.4188V2.89316H5.35593V3.4188C5.35593 4.1907 6.00906 4.7735 6.75684 4.7735C7.50461 4.7735 8.15774 4.1907 8.15774 3.4188V2.89316H9.44194L8.80742 8.73049L8.80498 8.75292L8.80457 8.77548C8.79691 9.19912 8.47244 9.49999 8.12584 9.49999H1.78431C1.43757 9.49999 1.11319 9.19908 1.10558 8.77563L1.10518 8.75304L1.10274 8.73058L0.468207 2.89316H1.75233Z" fill="#231F20" stroke="black"/>
<path d="M3.15333 3.76068C3.35207 3.76068 3.51369 3.60735 3.51369 3.4188V1.53846C3.51369 1.01051 4.07486 0.683761 4.59477 0.683761H5.49567C6.04288 0.683761 6.39657 1.01923 6.39657 1.53846V3.4188C6.39657 3.60735 6.55829 3.76068 6.75693 3.76068C6.95558 3.76068 7.11729 3.60735 7.11729 3.4188V1.53846C7.11729 0.647009 6.43531 0 5.49567 0H4.59477C3.60126 0 2.79297 0.690171 2.79297 1.53846V3.4188C2.79297 3.60735 2.95459 3.76068 3.15333 3.76068Z" fill="#231F20"/>
</g>
<defs>
<clipPath id="clip0">
<rect width="10" height="10" fill="white"/>
</clipPath>
</defs>
</svg>
